<?xml version="1.0" encoding="UTF-8"?>
<svg version="1.1" xmlns="http://www.w3.org/2000/svg" width="180" height="180">
<path d="M0 0 C22.98579793 -0.94462183 45.88212914 7.93435691 62.90625 23.15625 C63.73898438 23.89488281 64.57171875 24.63351563 65.4296875 25.39453125 C81.59872325 40.59342485 91.88120887 62.94702558 92.90625 85.15625 C92.9578125 85.8471875 93.009375 86.538125 93.0625 87.25 C94.00712183 110.23579793 85.12814309 133.13212914 69.90625 150.15625 C69.16761719 150.98898438 68.42898437 151.82171875 67.66796875 152.6796875 C52.46907515 168.84872325 30.11547442 179.13120887 7.90625 180.15625 C7.2153125 180.2078125 6.524375 180.259375 5.8125 180.3125 C-17.17329793 181.25712183 -40.06962914 172.37814309 -57.09375 157.15625 C-57.92648438 156.41761719 -58.75921875 155.67898437 -59.6171875 154.91796875 C-75.78622325 139.71907515 -86.06870887 117.36547442 -87.09375 95.15625 C-87.17109375 94.11984375 -87.17109375 94.11984375 -87.25 93.0625 C-88.19462183 70.07670207 -79.31564309 47.18037086 -64.09375 30.15625 C-63.35511719 29.32351562 -62.61648437 28.49078125 -61.85546875 27.6328125 C-45.64848657 10.3913421 -23.27521317 1.73695621 0 0 Z " fill="#F3F3F3" transform="translate(87.09375,-0.15625)"/>
<path d="M0 0 C5.35457142 3.50066758 9.32259687 7.72710783 11 14 C11.78907593 20.96339167 12.13860092 28.08661551 8.3984375 34.25390625 C3.46478873 40.41407664 -1.6562464 44.32398298 -9.59375 45.328125 C-12.06111555 45.59149548 -14.5257292 45.8141852 -17 46 C-17.02578125 46.75925781 -17.0515625 47.51851562 -17.078125 48.30078125 C-17.16320312 49.79158203 -17.16320312 49.79158203 -17.25 51.3125 C-17.29640625 52.29863281 -17.3428125 53.28476563 -17.390625 54.30078125 C-18 57 -18 57 -19.59375 58.84375 C-22.91479589 60.43957725 -25.58545245 60.28929299 -29.25 60.1875 C-30.51328125 60.16042969 -31.7765625 60.13335937 -33.078125 60.10546875 C-34.04234375 60.07066406 -35.0065625 60.03585938 -36 60 C-36.08809201 56.18764896 -36.1407549 52.37556447 -36.1875 48.5625 C-36.21263672 47.49322266 -36.23777344 46.42394531 -36.26367188 45.32226562 C-36.34508618 36.4481061 -35.244218 29.0863298 -29.5625 22 C-28.98628906 21.2575 -28.41007812 20.515 -27.81640625 19.75 C-26 18 -26 18 -22 17 C-22.33 19.97 -22.66 22.94 -23 26 C-22.34 26 -21.68 26 -21 26 C-21.0825 24.7625 -21.165 23.525 -21.25 22.25 C-21.26160446 18.97754309 -21.17256333 18.23008445 -19.125 15.5 C-17 14 -17 14 -15 14 C-15 15.32 -15 16.64 -15 18 C-14.13375 16.7934375 -14.13375 16.7934375 -13.25 15.5625 C-11.01873107 13.02133261 -10.25543229 12.34879632 -7 12 C-8.07401108 14.91517292 -8.77810176 16.77810176 -11 19 C-9.35 19 -7.7 19 -6 19 C-9.05142642 22.52087664 -11.60136813 23.63153675 -16 25 C-16.33 25.66 -16.66 26.32 -17 27 C-13.04 26.505 -13.04 26.505 -9 26 C-9.495 27.485 -9.495 27.485 -10 29 C-12.3984375 30.0625 -12.3984375 30.0625 -15.375 31 C-20.38238883 32.48225755 -20.38238883 32.48225755 -24 36 C-24.57775884 38.73230305 -24.57775884 38.73230305 -24.6875 41.6875 C-24.75324219 42.68136719 -24.81898437 43.67523438 -24.88671875 44.69921875 C-24.92410156 45.45847656 -24.96148437 46.21773437 -25 47 C-24.34 47 -23.68 47 -23 47 C-23.05800781 46.39671875 -23.11601563 45.7934375 -23.17578125 45.171875 C-23.5443299 38.64329897 -23.5443299 38.64329897 -20.9375 35.5625 C-17.69168382 33.83600203 -14.52791614 33.00797604 -11 32 C-6.17929683 29.30937498 -4.56433043 25.68240714 -2.71484375 20.68359375 C-1.64229426 16.65713746 -1.73247678 13.14660985 -2 9 C-11.39114349 8.36331231 -21.05880112 10.00494213 -28.375 16.3125 C-29.60786841 17.51705619 -30.81728484 18.74616389 -32 20 C-39.44567006 27.76645857 -46.83548845 34.31766557 -57.9375 35.375 C-65.9183204 35.08835428 -70.96368354 29.37249861 -76.50390625 24.25390625 C-84.13580884 17.36250125 -89.7377779 13.90549019 -100 13 C-100 7.72 -100 2.44 -100 -3 C-86.46484375 -3.7734375 -86.46484375 -3.7734375 -82.48828125 -0.67578125 C-77.98864648 3.60681305 -74.94102248 8.90711756 -71.75 14.1875 C-70.53987337 16.16225305 -69.3264675 18.13500131 -68.109375 20.10546875 C-67.58311523 20.97324951 -67.05685547 21.84103027 -66.51464844 22.73510742 C-65.13582078 24.7969037 -63.92079351 26.43658551 -62 28 C-59.06206856 28.38921902 -59.06206856 28.38921902 -56 27 C-51.91641101 23.02444246 -49.33114008 17.85678015 -46.5625 12.9375 C-42.1192799 5.24432633 -37.5752906 -0.31695858 -29.00390625 -3.33984375 C-19.2542734 -5.48248088 -8.72068722 -5.19050145 0 0 Z " fill="#0D9FCF" transform="translate(114,68)"/>
<path d="M0 0 C5.82425148 6.95152596 5.67895397 13.14407868 5 22 C3.32087688 28.71649247 -1.47410769 33.11460697 -7 37 C-12.03202431 39.40662032 -17.49671962 39.58671017 -23 40 C-23.02578125 40.75925781 -23.0515625 41.51851562 -23.078125 42.30078125 C-23.13484375 43.29464844 -23.1915625 44.28851563 -23.25 45.3125 C-23.31960937 46.79169922 -23.31960937 46.79169922 -23.390625 48.30078125 C-24 51 -24 51 -25.59375 52.84375 C-28.91479589 54.43957725 -31.58545245 54.28929299 -35.25 54.1875 C-36.51328125 54.16042969 -37.7765625 54.13335937 -39.078125 54.10546875 C-40.04234375 54.07066406 -41.0065625 54.03585938 -42 54 C-42.08809201 50.18764896 -42.1407549 46.37556447 -42.1875 42.5625 C-42.21263672 41.49322266 -42.23777344 40.42394531 -42.26367188 39.32226562 C-42.34508618 30.4481061 -41.244218 23.0863298 -35.5625 16 C-34.98628906 15.2575 -34.41007812 14.515 -33.81640625 13.75 C-32 12 -32 12 -28 11 C-28.33 13.97 -28.66 16.94 -29 20 C-28.34 20 -27.68 20 -27 20 C-27.12375 18.14375 -27.12375 18.14375 -27.25 16.25 C-27.26160446 12.97754309 -27.17256333 12.23008445 -25.125 9.5 C-23 8 -23 8 -21 8 C-21 9.32 -21 10.64 -21 12 C-20.13375 10.7934375 -20.13375 10.7934375 -19.25 9.5625 C-17.01873107 7.02133261 -16.25543229 6.34879632 -13 6 C-14.07401108 8.91517292 -14.77810176 10.77810176 -17 13 C-15.35 13 -13.7 13 -12 13 C-15.05142642 16.52087664 -17.60136813 17.63153675 -22 19 C-22.33 19.66 -22.66 20.32 -23 21 C-19.04 20.505 -19.04 20.505 -15 20 C-15.33 20.99 -15.66 21.98 -16 23 C-18.3984375 24.0625 -18.3984375 24.0625 -21.375 25 C-26.38238883 26.48225755 -26.38238883 26.48225755 -30 30 C-30.57775884 32.73230305 -30.57775884 32.73230305 -30.6875 35.6875 C-30.75324219 36.68136719 -30.81898437 37.67523438 -30.88671875 38.69921875 C-30.92410156 39.45847656 -30.96148437 40.21773437 -31 41 C-30.34 41 -29.68 41 -29 41 C-29.05800781 40.39671875 -29.11601563 39.7934375 -29.17578125 39.171875 C-29.5443299 32.64329897 -29.5443299 32.64329897 -26.9375 29.5625 C-23.69168382 27.83600203 -20.52791614 27.00797604 -17 26 C-11.4171126 22.88396982 -9.70844631 17.88941794 -8 12 C-7.50142102 8.99055929 -7.24170891 6.04553232 -7 3 C-6 2 -6 2 -2.9375 1.9375 C-1.4834375 1.9684375 -1.4834375 1.9684375 0 2 C0 1.34 0 0.68 0 0 Z " fill="#149C55" transform="translate(120,74)"/>
<path d="M0 0 C1.03125 0.00322266 2.0625 0.00644531 3.125 0.00976562 C4.20523438 0.01814453 5.28546875 0.02652344 6.3984375 0.03515625 C8.03039062 0.04192383 8.03039062 0.04192383 9.6953125 0.04882812 C12.38807539 0.06063849 15.08072938 0.07710847 17.7734375 0.09765625 C18.30590347 10.46885257 17.27398966 19.10848402 10.6484375 27.47265625 C3.82380629 34.42605409 -2.79185659 36.52734187 -12.3515625 36.66015625 C-13.4794519 36.68239258 -13.4794519 36.68239258 -14.63012695 36.70507812 C-21.47344017 36.57916896 -26.48664854 34.33863526 -31.7578125 30.02734375 C-32.73234375 29.01027344 -32.73234375 29.01027344 -33.7265625 27.97265625 C-34.396875 27.28945312 -35.0671875 26.60625 -35.7578125 25.90234375 C-37.2265625 24.09765625 -37.2265625 24.09765625 -37.2265625 22.09765625 C-35.65234375 20.765625 -35.65234375 20.765625 -33.5390625 19.28515625 C-30.08371225 16.78723875 -27.14482989 14.19831535 -24.2265625 11.09765625 C-23.74445313 11.66355469 -23.26234375 12.22945312 -22.765625 12.8125 C-22.13398438 13.54597656 -21.50234375 14.27945313 -20.8515625 15.03515625 C-20.22507813 15.76605469 -19.59859375 16.49695313 -18.953125 17.25 C-16.36248301 20.0223386 -15.38576311 20.08438953 -11.4765625 20.41015625 C-7.08802158 20.36228126 -4.61903958 18.92472049 -1.2265625 16.09765625 C-0.5665625 15.10765625 0.0934375 14.11765625 0.7734375 13.09765625 C-3.1865625 13.09765625 -7.1465625 13.09765625 -11.2265625 13.09765625 C-11.71736005 5.73569306 -11.71736005 5.73569306 -9.3515625 2.66015625 C-5.98916634 0.18780614 -4.13613275 -0.022726 0 0 Z " fill="#CA841C" transform="translate(151.2265625,90.90234375)"/>
<path d="M0 0 C3.68771247 2.31640231 6.92395048 4.92395048 10 8 C10.33970283 11.00879646 10.55524039 13.09786724 10 16 C7.875 18.5625 7.875 18.5625 5 20 C-0.53049423 20.11767009 -3.1126111 17.53398991 -7 14 C-10.23633355 12.38183323 -13.50267448 12.40978708 -17 13 C-19.6569191 14.42566391 -21.6636191 16.05301592 -24 18 C-24.25394531 17.32453125 -24.50789062 16.6490625 -24.76953125 15.953125 C-25.11371094 15.06109375 -25.45789063 14.1690625 -25.8125 13.25 C-26.14894531 12.36828125 -26.48539062 11.4865625 -26.83203125 10.578125 C-27.8946859 7.95455325 -27.8946859 7.95455325 -29.69921875 5.859375 C-30.12847656 5.24578125 -30.55773437 4.6321875 -31 4 C-30 1 -30 1 -28.3203125 -0.16796875 C-18.97417881 -4.50843297 -9.40801876 -4.21417039 0 0 Z " fill="#E5AE29" transform="translate(153,67)"/>
<path d="M0 0 C11.71257068 0.37182764 17.85426529 6.44791945 25.640625 14.73046875 C30.09939124 19.01944753 34.03193864 20.6971366 40.0625 21.3125 C47.81788318 20.6969934 54.82601849 17.67220223 61 13 C59.53071105 20.68813988 53.05195113 26.49223228 47 31 C43.04426736 32.97786632 38.31159423 32.42198582 34 32 C28.35648438 29.44444576 25.45110011 24.94033452 22 20 C20.94470133 18.5364471 19.88238207 17.07792626 18.8125 15.625 C18.11060547 14.65433594 18.11060547 14.65433594 17.39453125 13.6640625 C15.91510446 11.74014305 15.91510446 11.74014305 13 10 C9.79620876 9.75753217 9.79620876 9.75753217 6.3125 9.875 C5.13300781 9.89304687 3.95351563 9.91109375 2.73828125 9.9296875 C1.38283203 9.96449219 1.38283203 9.96449219 0 10 C0 6.7 0 3.4 0 0 Z " fill="#127FB6" transform="translate(15,85)"/>
<path d="M0 0 C0 6.27 0 12.54 0 19 C-12.37276905 19.36750799 -12.37276905 19.36750799 -14.88671875 17.89453125 C-16.53708121 15.08601969 -16.47086193 12.73432572 -16.5 9.5 C-16.54640625 7.78296875 -16.54640625 7.78296875 -16.59375 6.03125 C-16 3 -16 3 -13.83203125 1.10546875 C-9.15100939 -0.72174392 -4.98997632 -0.18036059 0 0 Z " fill="#0F6AA6" transform="translate(31,108)"/>
<path d="M0 0 C1.67961759 2.97583492 2.32956068 5.37901654 2.6328125 8.7734375 C2.71660156 9.6809375 2.80039063 10.5884375 2.88671875 11.5234375 C2.96535156 12.46445312 3.04398437 13.40546875 3.125 14.375 C3.21136719 15.30828125 3.29773438 16.2415625 3.38671875 17.203125 C3.79836819 21.81621239 4.1085458 26.3635436 4 31 C1.69 31 -0.62 31 -3 31 C-2.88822884 27.70774862 -2.75807764 24.41645353 -2.625 21.125 C-2.5940625 20.2071875 -2.563125 19.289375 -2.53125 18.34375 C-2.26580092 12.06145511 -1.41690436 6.125489 0 0 Z " fill="#ECB22D" transform="translate(94,30)"/>
<path d="M0 0 C0.96164063 0.00386719 1.92328125 0.00773437 2.9140625 0.01171875 C5.375 0.3125 5.375 0.3125 7.375 2.3125 C7.375 3.6325 7.375 4.9525 7.375 6.3125 C6.71113281 6.34988281 6.04726563 6.38726562 5.36328125 6.42578125 C0.23276831 6.80776105 -3.34224589 7.23427048 -7.625 10.3125 C-8.285 10.3125 -8.945 10.3125 -9.625 10.3125 C-9.875 7 -9.875 7 -9.625 3.3125 C-6.62203634 0.22494582 -4.20733006 -0.07371333 0 0 Z " fill="#1897C8" transform="translate(23.625,97.6875)"/>
<path d="M0 0 C0.33 0.99 0.66 1.98 1 3 C-3.61220501 7.38159476 -6.81643881 8.66022841 -13 10 C-15.39763185 12.39763185 -15.34280586 13.33273498 -15.625 16.625 C-15.69976562 17.44226563 -15.77453125 18.25953125 -15.8515625 19.1015625 C-15.90054688 19.72804688 -15.94953125 20.35453125 -16 21 C-16.66 21 -17.32 21 -18 21 C-18.93182092 11.14685652 -18.93182092 11.14685652 -15.5625 7 C-12.32714709 4.86620773 -8.76181569 3.72051115 -5.05078125 2.67578125 C-2.72869823 2.01155193 -2.72869823 2.01155193 0 0 Z " fill="#E0EFE7" transform="translate(107,94)"/>
<path d="M0 0 C0.99 0.66 1.98 1.32 3 2 C1.741875 2.20625 0.48375 2.4125 -0.8125 2.625 C-4.89125906 3.49718747 -7.98052848 5.00383251 -11.5625 7.125 C-16.42552285 9.94692312 -19.4436523 10.62902049 -25 10 C-22.77050304 7.77050304 -21.18551121 7.20135411 -18.25 6.125 C-15.0038191 4.88614187 -12.6841055 3.77701565 -9.8125 1.75 C-6.27920044 -0.4484975 -4.09223437 -0.46327182 0 0 Z " fill="#EFE2D1" transform="translate(155,113)"/>
<path d="M0 0 C6.99777756 0.3180808 13.1597177 3.21578066 19 7 C20.35546875 9.19921875 20.35546875 9.19921875 21 11 C16.02405269 10.02432406 11.6367339 7.54229507 7.09375 5.375 C4.67842737 4.30152327 2.57559931 3.50501947 0 3 C0 2.01 0 1.02 0 0 Z " fill="#E2A434" transform="translate(99,44)"/>
<path d="M0 0 C-0.33 0.99 -0.66 1.98 -1 3 C-3.29296875 4.02734375 -3.29296875 4.02734375 -6.1875 4.9375 C-9.59877526 6.08344072 -12.56857303 7.14976245 -15.5 9.25 C-18 11 -18 11 -21 11 C-18.95619901 6.12392657 -15.57458769 4.34106386 -11 2 C-7.00875649 0.60306477 -4.23523414 0 0 0 Z " fill="#EDB437" transform="translate(90,44)"/>
<path d="M0 0 C5.70985379 3.65119902 10.94464135 7.48244546 16 12 C15.01 13.485 15.01 13.485 14 15 C10.85344915 14.6975855 9.92468419 13.92227915 7.67578125 11.6015625 C6.89589844 10.61929688 6.11601563 9.63703125 5.3125 8.625 C4.52488281 7.64789063 3.73726563 6.67078125 2.92578125 5.6640625 C1 3 1 3 0 0 Z " fill="#EDB63C" transform="translate(61,51)"/>
<path d="M0 0 C4 4.625 4 4.625 4 8 C3.06027344 7.98259766 3.06027344 7.98259766 2.1015625 7.96484375 C0.87566406 7.95130859 0.87566406 7.95130859 -0.375 7.9375 C-1.59316406 7.92009766 -1.59316406 7.92009766 -2.8359375 7.90234375 C-5.04937142 7.85533666 -5.04937142 7.85533666 -7 9 C-7.04254356 7.00045254 -7.04080783 4.99958364 -7 3 C-6 2 -6 2 -2.9375 1.9375 C-1.4834375 1.9684375 -1.4834375 1.9684375 0 2 C0 1.34 0 0.68 0 0 Z " fill="#03A57A" transform="translate(120,74)"/>
<path d="M0 0 C0.66 0 1.32 0 2 0 C1.34122452 4.3479182 -0.27464565 7.97417319 -2 12 C-2.69140522 14.77888613 -2.69140522 14.77888613 -3 17 C-3.99 17 -4.98 17 -6 17 C-6.34884724 12.10160332 -5.46792622 9.34104063 -3 5.125 C-2.443125 4.15820312 -1.88625 3.19140625 -1.3125 2.1953125 C-0.879375 1.47085938 -0.44625 0.74640625 0 0 Z " fill="#DD9D31" transform="translate(63,59)"/>
<path d="M0 0 C0.89976563 0.103125 1.79953125 0.20625 2.7265625 0.3125 C0.2304327 5.3047596 -5.00425261 8.83758207 -9.2734375 12.3125 C-9.9334375 11.6525 -10.5934375 10.9925 -11.2734375 10.3125 C-10.08887387 8.62885626 -8.8747632 6.96597286 -7.6484375 5.3125 C-6.97554688 4.384375 -6.30265625 3.45625 -5.609375 2.5 C-3.2734375 0.3125 -3.2734375 0.3125 0 0 Z " fill="#EAEEE4" transform="translate(125.2734375,100.6875)"/>
<path d="M0 0 C0 4.06608359 -1.53964891 5.22635275 -4.1875 8.25 C-4.96480469 9.16265625 -5.74210937 10.0753125 -6.54296875 11.015625 C-9 13 -9 13 -11.80078125 12.796875 C-12.52652344 12.53390625 -13.25226563 12.2709375 -14 12 C-14 11.34 -14 10.68 -14 10 C-11.69833213 8.20916148 -9.39761099 6.52740758 -7 4.875 C-6.33226563 4.40707031 -5.66453125 3.93914063 -4.9765625 3.45703125 C-3.32185734 2.29873764 -1.66144693 1.14860235 0 0 Z " fill="#E1A233" transform="translate(126,52)"/>
<path d="M0 0 C-1.07401108 2.91517292 -1.77810176 4.77810176 -4 7 C-2.35 7 -0.7 7 1 7 C-0.32 8.32 -1.64 9.64 -3 11 C-3.33 10.34 -3.66 9.68 -4 9 C-7 7.66666667 -7 7.66666667 -10 9 C-8.91720359 5.75161077 -8.10963155 4.95717417 -5.5625 2.8125 C-4.94503906 2.28269531 -4.32757813 1.75289063 -3.69140625 1.20703125 C-2 0 -2 0 0 0 Z " fill="#29B66E" transform="translate(107,80)"/>
<path d="M0 0 C4.62 0 9.24 0 14 0 C13.67 1.32 13.34 2.64 13 4 C3.58997722 3.03644647 3.58997722 3.03644647 -1 2 C-0.67 1.34 -0.34 0.68 0 0 Z " fill="#D89835" transform="translate(50,78)"/>
<path d="M0 0 C0.66 0.33 1.32 0.66 2 1 C1.525625 1.639375 1.05125 2.27875 0.5625 2.9375 C-1.47031387 6.92181519 -1.7210529 10.58494074 -2 15 C-2.66 15 -3.32 15 -4 15 C-4.63019694 4.84682713 -4.63019694 4.84682713 -2 1.3125 C-1.34 0.879375 -0.68 0.44625 0 0 Z " fill="#CEE4DA" transform="translate(93,100)"/>
<path d="M0 0 C1.78409802 3.06246747 2.22880021 5.22079273 2.125 8.75 C2.10695313 9.54921875 2.08890625 10.3484375 2.0703125 11.171875 C2.03550781 12.07679687 2.03550781 12.07679687 2 13 C1.34 12.34 0.68 11.68 0 11 C-0.33 13.31 -0.66 15.62 -1 18 C-1.33 18 -1.66 18 -2 18 C-2.23268915 11.71739294 -1.40454548 6.11980533 0 0 Z " fill="#E1AB4E" transform="translate(94,30)"/>
<path d="M0 0 C6.625 0.75 6.625 0.75 10 3 C9.67 3.66 9.34 4.32 9 5 C4.545 4.01 4.545 4.01 0 3 C0 2.01 0 1.02 0 0 Z " fill="#E5A834" transform="translate(99,44)"/>
<path d="M0 0 C0.99 0.66 1.98 1.32 3 2 C1.58461283 2.33872513 0.16762037 2.67074624 -1.25 3 C-2.03890625 3.185625 -2.8278125 3.37125 -3.640625 3.5625 C-6 4 -6 4 -10 4 C-10 3.34 -10 2.68 -10 2 C-6.31282562 -0.45811625 -4.35654296 -0.31118164 0 0 Z " fill="#EBDAC2" transform="translate(155,113)"/>
<path d="M0 0 C0.66 0 1.32 0 2 0 C1.4739075 3.78786597 0.61896089 6.17152224 -2 9 C-2.66 9 -3.32 9 -4 9 C-2.94124926 5.59687262 -1.99097846 2.98646769 0 0 Z " fill="#E6A932" transform="translate(63,59)"/>
<path d="M0 0 C1.22589844 0.01353516 1.22589844 0.01353516 2.4765625 0.02734375 C3.41628906 0.04474609 3.41628906 0.04474609 4.375 0.0625 C1.6889714 1.85318573 -0.2876589 2.72305791 -3.3125 3.6875 C-4.12074219 3.94789062 -4.92898437 4.20828125 -5.76171875 4.4765625 C-6.37660156 4.66992188 -6.99148437 4.86328125 -7.625 5.0625 C-7.25 3.125 -7.25 3.125 -6.625 1.0625 C-4.21954362 -0.14022819 -2.67503047 -0.03821472 0 0 Z " fill="#C37B1B" transform="translate(153.625,115.9375)"/>
<path d="M0 0 C-0.33 1.32 -0.66 2.64 -1 4 C-3.64 4 -6.28 4 -9 4 C-8.67 3.01 -8.34 2.02 -8 1 C-2.59770115 -1.29885057 -2.59770115 -1.29885057 0 0 Z " fill="#BDE4D0" transform="translate(106,91)"/>
<path d="M0 0 C-2.11386464 2.11386464 -3.79267603 2.97008322 -6.5 4.1875 C-7.2940625 4.55230469 -8.088125 4.91710937 -8.90625 5.29296875 C-9.5971875 5.52628906 -10.288125 5.75960937 -11 6 C-11.66 5.67 -12.32 5.34 -13 5 C-4.738041 -0.74031891 -4.738041 -0.74031891 0 0 Z " fill="#EBDCCA" transform="translate(156,118)"/>
<path d="M0 0 C-0.33 0.99 -0.66 1.98 -1 3 C-3.64 3.33 -6.28 3.66 -9 4 C-8.67 3.01 -8.34 2.02 -8 1 C-5.17884816 -0.07009208 -3.09455459 0 0 0 Z " fill="#EAAE2F" transform="translate(90,44)"/>
<path d="M0 0 C1.32 1.65 2.64 3.3 4 5 C3.67 5.66 3.34 6.32 3 7 C1.35 6.67 -0.3 6.34 -2 6 C-2.33 5.01 -2.66 4.02 -3 3 C-2.01 2.67 -1.02 2.34 0 2 C0 1.34 0 0.68 0 0 Z " fill="#1DAC9C" transform="translate(120,74)"/>
<path d="M0 0 C2.79872437 2.52788007 4.45773019 4.20411134 5 8 C4.01 8 3.02 8 2 8 C0.74335022 5.09399739 0 3.20395416 0 0 Z " fill="#EFC14E" transform="translate(80,54)"/>
<path d="M0 0 C3.125 -0.1875 3.125 -0.1875 6 0 C4.768606 2.46278801 3.21935077 3.42497687 1 5 C0.01 4.34 -0.98 3.68 -2 3 C-1.34 2.01 -0.68 1.02 0 0 Z " fill="#E7E7D2" transform="translate(122,101)"/>
<path d="M0 0 C2.97 0.495 2.97 0.495 6 1 C6 1.66 6 2.32 6 3 C3.36 3.33 0.72 3.66 -2 4 C-1.34 2.68 -0.68 1.36 0 0 Z " fill="#06A0AF" transform="translate(114,73)"/>
<path d="M0 0 C2.4375 0.8125 2.4375 0.8125 5 2 C5.33 2.99 5.66 3.98 6 5 C3.83125748 4.49396008 2.00032373 4.00016187 0 3 C0 2.01 0 1.02 0 0 Z " fill="#DE9C29" transform="translate(114,50)"/>
</svg>
